<svg xmlns="http://www.w3.org/2000/svg" width="1024" height="1024"><rect x="0" y="0" width="1024" height="1024" fill="white"/><circle stroke="#1a1a2e" stroke-width="12" cx="512.0" cy="512.0" r="482.0" fill="none"/><circle stroke="#1a1a2e" stroke-width="2" cx="512.0" cy="512.0" r="440.0" fill="none"/><circle stroke="#1a1a2e" stroke-dasharray="3 6" stroke-width="1" cx="512.0" cy="512.0" r="420.0" fill="none"/><circle stroke="#1a1a2e" stroke-width="1" opacity="0.25" cx="512.0" cy="512.0" r="140" fill="none"/><rect x="392.0" y="342.0" width="40" height="340" rx="5" ry="5" fill="#1a1a2e"/><rect x="592.0" y="342.0" width="40" height="340" rx="5" ry="5" fill="#1a1a2e"/><rect x="412.0" y="492.0" width="200" height="40" rx="5" ry="5" fill="#1a1a2e"/><polygon points="767.9726547895301 256.0273452104698 543.8198051533947 543.8198051533947 480.18019484660533 480.1801948466054" fill="#f5abb9"/><polygon points="256.0273452104699 767.9726547895302 480.18019484660533 480.1801948466054 543.8198051533947 543.8198051533947" fill="#5bcffa"/><circle stroke="none" cx="512.0" cy="512.0" r="34" fill="white"/><g transform="rotate(0.0 512.0 512.0)"><rect opacity="1.0" x="507.0" y="46.0" width="10" height="40" rx="5" ry="5" fill="#1a1a2e"/></g><g transform="rotate(1.6666666666666667 512.0 512.0)"><rect opacity="0.2" x="511.0" y="46.0" width="2" height="9" rx="1" ry="1" fill="#1a1a2e"/></g><g transform="rotate(3.3333333333333335 512.0 512.0)"><rect opacity="0.2" x="511.0" y="46.0" width="2" height="9" rx="1" ry="1" fill="#1a1a2e"/></g><g transform="rotate(5.0 512.0 512.0)"><rect opacity="0.35" x="510.5" y="46.0" width="3" height="14" rx="1.5" ry="1.5" fill="#1a1a2e"/></g><g transform="rotate(6.666666666666667 512.0 512.0)"><rect opacity="0.2" x="511.0" y="46.0" width="2" height="9" rx="1" ry="1" fill="#1a1a2e"/></g><g transform="rotate(8.333333333333334 512.0 512.0)"><rect opacity="0.2" x="511.0" y="46.0" width="2" height="9" rx="1" ry="1" fill="#1a1a2e"/></g><g transform="rotate(10.0 512.0 512.0)"><rect opacity="0.35" x="510.5" y="46.0" width="3" height="14" rx="1.5" ry="1.5" fill="#1a1a2e"/></g><g transform="rotate(11.666666666666666 512.0 512.0)"><rect opacity="0.2" x="511.0" y="46.0" width="2" height="9" rx="1" ry="1" fill="#1a1a2e"/></g><g transform="rotate(13.333333333333334 512.0 512.0)"><rect opacity="0.2" x="511.0" y="46.0" width="2" height="9" rx="1" ry="1" fill="#1a1a2e"/></g><g transform="rotate(15.0 512.0 512.0)"><rect opacity="0.35" x="510.5" y="46.0" width="3" height="14" rx="1.5" ry="1.5" fill="#1a1a2e"/></g><g transform="rotate(16.666666666666668 512.0 512.0)"><rect opacity="0.2" x="511.0" y="46.0" width="2" height="9" rx="1" ry="1" fill="#1a1a2e"/></g><g transform="rotate(18.333333333333332 512.0 512.0)"><rect opacity="0.2" x="511.0" y="46.0" width="2" height="9" rx="1" ry="1" fill="#1a1a2e"/></g><g transform="rotate(20.0 512.0 512.0)"><rect opacity="0.35" x="510.5" y="46.0" width="3" height="14" rx="1.5" ry="1.5" fill="#1a1a2e"/></g><g transform="rotate(21.666666666666668 512.0 512.0)"><rect opacity="0.2" x="511.0" y="46.0" width="2" height="9" rx="1" ry="1" fill="#1a1a2e"/></g><g transform="rotate(23.333333333333332 512.0 512.0)"><rect opacity="0.2" x="511.0" y="46.0" width="2" height="9" rx="1" ry="1" fill="#1a1a2e"/></g><g transform="rotate(25.0 512.0 512.0)"><rect opacity="0.35" x="510.5" y="46.0" width="3" height="14" rx="1.5" ry="1.5" fill="#1a1a2e"/></g><g transform="rotate(26.666666666666668 512.0 512.0)"><rect opacity="0.2" x="511.0" y="46.0" width="2" height="9" rx="1" ry="1" fill="#1a1a2e"/></g><g transform="rotate(28.333333333333332 512.0 512.0)"><rect opacity="0.2" x="511.0" y="46.0" width="2" height="9" rx="1" ry="1" fill="#1a1a2e"/></g><g transform="rotate(30.0 512.0 512.0)"><rect opacity="1.0" x="508.5" y="46.0" width="7" height="28" rx="3.5" ry="3.5" fill="#1a1a2e"/></g><g transform="rotate(31.666666666666668 512.0 512.0)"><rect opacity="0.2" x="511.0" y="46.0" width="2" height="9" rx="1" ry="1" fill="#1a1a2e"/></g><g transform="rotate(33.333333333333336 512.0 512.0)"><rect opacity="0.2" x="511.0" y="46.0" width="2" height="9" rx="1" ry="1" fill="#1a1a2e"/></g><g transform="rotate(35.0 512.0 512.0)"><rect opacity="0.35" x="510.5" y="46.0" width="3" height="14" rx="1.5" ry="1.5" fill="#1a1a2e"/></g><g transform="rotate(36.666666666666664 512.0 512.0)"><rect opacity="0.2" x="511.0" y="46.0" width="2" height="9" rx="1" ry="1" fill="#1a1a2e"/></g><g transform="rotate(38.333333333333336 512.0 512.0)"><rect opacity="0.2" x="511.0" y="46.0" width="2" height="9" rx="1" ry="1" fill="#1a1a2e"/></g><g transform="rotate(40.0 512.0 512.0)"><rect opacity="0.35" x="510.5" y="46.0" width="3" height="14" rx="1.5" ry="1.5" fill="#1a1a2e"/></g><g transform="rotate(41.666666666666664 512.0 512.0)"><rect opacity="0.2" x="511.0" y="46.0" width="2" height="9" rx="1" ry="1" fill="#1a1a2e"/></g><g transform="rotate(43.333333333333336 512.0 512.0)"><rect opacity="0.2" x="511.0" y="46.0" width="2" height="9" rx="1" ry="1" fill="#1a1a2e"/></g><g transform="rotate(45.0 512.0 512.0)"><rect opacity="0.35" x="510.5" y="46.0" width="3" height="14" rx="1.5" ry="1.5" fill="#1a1a2e"/></g><g transform="rotate(46.666666666666664 512.0 512.0)"><rect opacity="0.2" x="511.0" y="46.0" width="2" height="9" rx="1" ry="1" fill="#1a1a2e"/></g><g transform="rotate(48.333333333333336 512.0 512.0)"><rect opacity="0.2" x="511.0" y="46.0" width="2" height="9" rx="1" ry="1" fill="#1a1a2e"/></g><g transform="rotate(50.0 512.0 512.0)"><rect opacity="0.35" x="510.5" y="46.0" width="3" height="14" rx="1.5" ry="1.5" fill="#1a1a2e"/></g><g transform="rotate(51.666666666666664 512.0 512.0)"><rect opacity="0.2" x="511.0" y="46.0" width="2" height="9" rx="1" ry="1" fill="#1a1a2e"/></g><g transform="rotate(53.333333333333336 512.0 512.0)"><rect opacity="0.2" x="511.0" y="46.0" width="2" height="9" rx="1" ry="1" fill="#1a1a2e"/></g><g transform="rotate(55.0 512.0 512.0)"><rect opacity="0.35" x="510.5" y="46.0" width="3" height="14" rx="1.5" ry="1.5" fill="#1a1a2e"/></g><g transform="rotate(56.666666666666664 512.0 512.0)"><rect opacity="0.2" x="511.0" y="46.0" width="2" height="9" rx="1" ry="1" fill="#1a1a2e"/></g><g transform="rotate(58.333333333333336 512.0 512.0)"><rect opacity="0.2" x="511.0" y="46.0" width="2" height="9" rx="1" ry="1" fill="#1a1a2e"/></g><g transform="rotate(60.0 512.0 512.0)"><rect opacity="1.0" x="508.5" y="46.0" width="7" height="28" rx="3.5" ry="3.5" fill="#1a1a2e"/></g><g transform="rotate(61.666666666666664 512.0 512.0)"><rect opacity="0.2" x="511.0" y="46.0" width="2" height="9" rx="1" ry="1" fill="#1a1a2e"/></g><g transform="rotate(63.333333333333336 512.0 512.0)"><rect opacity="0.2" x="511.0" y="46.0" width="2" height="9" rx="1" ry="1" fill="#1a1a2e"/></g><g transform="rotate(65.0 512.0 512.0)"><rect opacity="0.35" x="510.5" y="46.0" width="3" height="14" rx="1.5" ry="1.5" fill="#1a1a2e"/></g><g transform="rotate(66.66666666666667 512.0 512.0)"><rect opacity="0.2" x="511.0" y="46.0" width="2" height="9" rx="1" ry="1" fill="#1a1a2e"/></g><g transform="rotate(68.33333333333333 512.0 512.0)"><rect opacity="0.2" x="511.0" y="46.0" width="2" height="9" rx="1" ry="1" fill="#1a1a2e"/></g><g transform="rotate(70.0 512.0 512.0)"><rect opacity="0.35" x="510.5" y="46.0" width="3" height="14" rx="1.5" ry="1.5" fill="#1a1a2e"/></g><g transform="rotate(71.66666666666667 512.0 512.0)"><rect opacity="0.2" x="511.0" y="46.0" width="2" height="9" rx="1" ry="1" fill="#1a1a2e"/></g><g transform="rotate(73.33333333333333 512.0 512.0)"><rect opacity="0.2" x="511.0" y="46.0" width="2" height="9" rx="1" ry="1" fill="#1a1a2e"/></g><g transform="rotate(75.0 512.0 512.0)"><rect opacity="0.35" x="510.5" y="46.0" width="3" height="14" rx="1.5" ry="1.5" fill="#1a1a2e"/></g><g transform="rotate(76.66666666666667 512.0 512.0)"><rect opacity="0.2" x="511.0" y="46.0" width="2" height="9" rx="1" ry="1" fill="#1a1a2e"/></g><g transform="rotate(78.33333333333333 512.0 512.0)"><rect opacity="0.2" x="511.0" y="46.0" width="2" height="9" rx="1" ry="1" fill="#1a1a2e"/></g><g transform="rotate(80.0 512.0 512.0)"><rect opacity="0.35" x="510.5" y="46.0" width="3" height="14" rx="1.5" ry="1.5" fill="#1a1a2e"/></g><g transform="rotate(81.66666666666667 512.0 512.0)"><rect opacity="0.2" x="511.0" y="46.0" width="2" height="9" rx="1" ry="1" fill="#1a1a2e"/></g><g transform="rotate(83.33333333333333 512.0 512.0)"><rect opacity="0.2" x="511.0" y="46.0" width="2" height="9" rx="1" ry="1" fill="#1a1a2e"/></g><g transform="rotate(85.0 512.0 512.0)"><rect opacity="0.35" x="510.5" y="46.0" width="3" height="14" rx="1.5" ry="1.5" fill="#1a1a2e"/></g><g transform="rotate(86.66666666666667 512.0 512.0)"><rect opacity="0.2" x="511.0" y="46.0" width="2" height="9" rx="1" ry="1" fill="#1a1a2e"/></g><g transform="rotate(88.33333333333333 512.0 512.0)"><rect opacity="0.2" x="511.0" y="46.0" width="2" height="9" rx="1" ry="1" fill="#1a1a2e"/></g><g transform="rotate(90.0 512.0 512.0)"><rect opacity="1.0" x="507.0" y="46.0" width="10" height="40" rx="5" ry="5" fill="#1a1a2e"/></g><g transform="rotate(91.66666666666667 512.0 512.0)"><rect opacity="0.2" x="511.0" y="46.0" width="2" height="9" rx="1" ry="1" fill="#1a1a2e"/></g><g transform="rotate(93.33333333333333 512.0 512.0)"><rect opacity="0.2" x="511.0" y="46.0" width="2" height="9" rx="1" ry="1" fill="#1a1a2e"/></g><g transform="rotate(95.0 512.0 512.0)"><rect opacity="0.35" x="510.5" y="46.0" width="3" height="14" rx="1.5" ry="1.5" fill="#1a1a2e"/></g><g transform="rotate(96.66666666666667 512.0 512.0)"><rect opacity="0.2" x="511.0" y="46.0" width="2" height="9" rx="1" ry="1" fill="#1a1a2e"/></g><g transform="rotate(98.33333333333333 512.0 512.0)"><rect opacity="0.2" x="511.0" y="46.0" width="2" height="9" rx="1" ry="1" fill="#1a1a2e"/></g><g transform="rotate(100.0 512.0 512.0)"><rect opacity="0.35" x="510.5" y="46.0" width="3" height="14" rx="1.5" ry="1.5" fill="#1a1a2e"/></g><g transform="rotate(101.66666666666667 512.0 512.0)"><rect opacity="0.2" x="511.0" y="46.0" width="2" height="9" rx="1" ry="1" fill="#1a1a2e"/></g><g transform="rotate(103.33333333333333 512.0 512.0)"><rect opacity="0.2" x="511.0" y="46.0" width="2" height="9" rx="1" ry="1" fill="#1a1a2e"/></g><g transform="rotate(105.0 512.0 512.0)"><rect opacity="0.35" x="510.5" y="46.0" width="3" height="14" rx="1.5" ry="1.5" fill="#1a1a2e"/></g><g transform="rotate(106.66666666666667 512.0 512.0)"><rect opacity="0.2" x="511.0" y="46.0" width="2" height="9" rx="1" ry="1" fill="#1a1a2e"/></g><g transform="rotate(108.33333333333333 512.0 512.0)"><rect opacity="0.2" x="511.0" y="46.0" width="2" height="9" rx="1" ry="1" fill="#1a1a2e"/></g><g transform="rotate(110.0 512.0 512.0)"><rect opacity="0.35" x="510.5" y="46.0" width="3" height="14" rx="1.5" ry="1.5" fill="#1a1a2e"/></g><g transform="rotate(111.66666666666667 512.0 512.0)"><rect opacity="0.2" x="511.0" y="46.0" width="2" height="9" rx="1" ry="1" fill="#1a1a2e"/></g><g transform="rotate(113.33333333333333 512.0 512.0)"><rect opacity="0.2" x="511.0" y="46.0" width="2" height="9" rx="1" ry="1" fill="#1a1a2e"/></g><g transform="rotate(115.0 512.0 512.0)"><rect opacity="0.35" x="510.5" y="46.0" width="3" height="14" rx="1.5" ry="1.5" fill="#1a1a2e"/></g><g transform="rotate(116.66666666666667 512.0 512.0)"><rect opacity="0.2" x="511.0" y="46.0" width="2" height="9" rx="1" ry="1" fill="#1a1a2e"/></g><g transform="rotate(118.33333333333333 512.0 512.0)"><rect opacity="0.2" x="511.0" y="46.0" width="2" height="9" rx="1" ry="1" fill="#1a1a2e"/></g><g transform="rotate(120.0 512.0 512.0)"><rect opacity="1.0" x="508.5" y="46.0" width="7" height="28" rx="3.5" ry="3.5" fill="#1a1a2e"/></g><g transform="rotate(121.66666666666667 512.0 512.0)"><rect opacity="0.2" x="511.0" y="46.0" width="2" height="9" rx="1" ry="1" fill="#1a1a2e"/></g><g transform="rotate(123.33333333333333 512.0 512.0)"><rect opacity="0.2" x="511.0" y="46.0" width="2" height="9" rx="1" ry="1" fill="#1a1a2e"/></g><g transform="rotate(125.0 512.0 512.0)"><rect opacity="0.35" x="510.5" y="46.0" width="3" height="14" rx="1.5" ry="1.5" fill="#1a1a2e"/></g><g transform="rotate(126.66666666666667 512.0 512.0)"><rect opacity="0.2" x="511.0" y="46.0" width="2" height="9" rx="1" ry="1" fill="#1a1a2e"/></g><g transform="rotate(128.33333333333334 512.0 512.0)"><rect opacity="0.2" x="511.0" y="46.0" width="2" height="9" rx="1" ry="1" fill="#1a1a2e"/></g><g transform="rotate(130.0 512.0 512.0)"><rect opacity="0.35" x="510.5" y="46.0" width="3" height="14" rx="1.5" ry="1.5" fill="#1a1a2e"/></g><g transform="rotate(131.66666666666666 512.0 512.0)"><rect opacity="0.2" x="511.0" y="46.0" width="2" height="9" rx="1" ry="1" fill="#1a1a2e"/></g><g transform="rotate(133.33333333333334 512.0 512.0)"><rect opacity="0.2" x="511.0" y="46.0" width="2" height="9" rx="1" ry="1" fill="#1a1a2e"/></g><g transform="rotate(135.0 512.0 512.0)"><rect opacity="0.35" x="510.5" y="46.0" width="3" height="14" rx="1.5" ry="1.5" fill="#1a1a2e"/></g><g transform="rotate(136.66666666666666 512.0 512.0)"><rect opacity="0.2" x="511.0" y="46.0" width="2" height="9" rx="1" ry="1" fill="#1a1a2e"/></g><g transform="rotate(138.33333333333334 512.0 512.0)"><rect opacity="0.2" x="511.0" y="46.0" width="2" height="9" rx="1" ry="1" fill="#1a1a2e"/></g><g transform="rotate(140.0 512.0 512.0)"><rect opacity="0.35" x="510.5" y="46.0" width="3" height="14" rx="1.5" ry="1.5" fill="#1a1a2e"/></g><g transform="rotate(141.66666666666666 512.0 512.0)"><rect opacity="0.2" x="511.0" y="46.0" width="2" height="9" rx="1" ry="1" fill="#1a1a2e"/></g><g transform="rotate(143.33333333333334 512.0 512.0)"><rect opacity="0.2" x="511.0" y="46.0" width="2" height="9" rx="1" ry="1" fill="#1a1a2e"/></g><g transform="rotate(145.0 512.0 512.0)"><rect opacity="0.35" x="510.5" y="46.0" width="3" height="14" rx="1.5" ry="1.5" fill="#1a1a2e"/></g><g transform="rotate(146.66666666666666 512.0 512.0)"><rect opacity="0.2" x="511.0" y="46.0" width="2" height="9" rx="1" ry="1" fill="#1a1a2e"/></g><g transform="rotate(148.33333333333334 512.0 512.0)"><rect opacity="0.2" x="511.0" y="46.0" width="2" height="9" rx="1" ry="1" fill="#1a1a2e"/></g><g transform="rotate(150.0 512.0 512.0)"><rect opacity="1.0" x="508.5" y="46.0" width="7" height="28" rx="3.5" ry="3.5" fill="#1a1a2e"/></g><g transform="rotate(151.66666666666666 512.0 512.0)"><rect opacity="0.2" x="511.0" y="46.0" width="2" height="9" rx="1" ry="1" fill="#1a1a2e"/></g><g transform="rotate(153.33333333333334 512.0 512.0)"><rect opacity="0.2" x="511.0" y="46.0" width="2" height="9" rx="1" ry="1" fill="#1a1a2e"/></g><g transform="rotate(155.0 512.0 512.0)"><rect opacity="0.35" x="510.5" y="46.0" width="3" height="14" rx="1.5" ry="1.5" fill="#1a1a2e"/></g><g transform="rotate(156.66666666666666 512.0 512.0)"><rect opacity="0.2" x="511.0" y="46.0" width="2" height="9" rx="1" ry="1" fill="#1a1a2e"/></g><g transform="rotate(158.33333333333334 512.0 512.0)"><rect opacity="0.2" x="511.0" y="46.0" width="2" height="9" rx="1" ry="1" fill="#1a1a2e"/></g><g transform="rotate(160.0 512.0 512.0)"><rect opacity="0.35" x="510.5" y="46.0" width="3" height="14" rx="1.5" ry="1.5" fill="#1a1a2e"/></g><g transform="rotate(161.66666666666666 512.0 512.0)"><rect opacity="0.2" x="511.0" y="46.0" width="2" height="9" rx="1" ry="1" fill="#1a1a2e"/></g><g transform="rotate(163.33333333333334 512.0 512.0)"><rect opacity="0.2" x="511.0" y="46.0" width="2" height="9" rx="1" ry="1" fill="#1a1a2e"/></g><g transform="rotate(165.0 512.0 512.0)"><rect opacity="0.35" x="510.5" y="46.0" width="3" height="14" rx="1.5" ry="1.5" fill="#1a1a2e"/></g><g transform="rotate(166.66666666666666 512.0 512.0)"><rect opacity="0.2" x="511.0" y="46.0" width="2" height="9" rx="1" ry="1" fill="#1a1a2e"/></g><g transform="rotate(168.33333333333334 512.0 512.0)"><rect opacity="0.2" x="511.0" y="46.0" width="2" height="9" rx="1" ry="1" fill="#1a1a2e"/></g><g transform="rotate(170.0 512.0 512.0)"><rect opacity="0.35" x="510.5" y="46.0" width="3" height="14" rx="1.5" ry="1.5" fill="#1a1a2e"/></g><g transform="rotate(171.66666666666666 512.0 512.0)"><rect opacity="0.2" x="511.0" y="46.0" width="2" height="9" rx="1" ry="1" fill="#1a1a2e"/></g><g transform="rotate(173.33333333333334 512.0 512.0)"><rect opacity="0.2" x="511.0" y="46.0" width="2" height="9" rx="1" ry="1" fill="#1a1a2e"/></g><g transform="rotate(175.0 512.0 512.0)"><rect opacity="0.35" x="510.5" y="46.0" width="3" height="14" rx="1.5" ry="1.5" fill="#1a1a2e"/></g><g transform="rotate(176.66666666666666 512.0 512.0)"><rect opacity="0.2" x="511.0" y="46.0" width="2" height="9" rx="1" ry="1" fill="#1a1a2e"/></g><g transform="rotate(178.33333333333334 512.0 512.0)"><rect opacity="0.2" x="511.0" y="46.0" width="2" height="9" rx="1" ry="1" fill="#1a1a2e"/></g><g transform="rotate(180.0 512.0 512.0)"><rect opacity="1.0" x="507.0" y="46.0" width="10" height="40" rx="5" ry="5" fill="#1a1a2e"/></g><g transform="rotate(181.66666666666666 512.0 512.0)"><rect opacity="0.2" x="511.0" y="46.0" width="2" height="9" rx="1" ry="1" fill="#1a1a2e"/></g><g transform="rotate(183.33333333333334 512.0 512.0)"><rect opacity="0.2" x="511.0" y="46.0" width="2" height="9" rx="1" ry="1" fill="#1a1a2e"/></g><g transform="rotate(185.0 512.0 512.0)"><rect opacity="0.35" x="510.5" y="46.0" width="3" height="14" rx="1.5" ry="1.5" fill="#1a1a2e"/></g><g transform="rotate(186.66666666666666 512.0 512.0)"><rect opacity="0.2" x="511.0" y="46.0" width="2" height="9" rx="1" ry="1" fill="#1a1a2e"/></g><g transform="rotate(188.33333333333334 512.0 512.0)"><rect opacity="0.2" x="511.0" y="46.0" width="2" height="9" rx="1" ry="1" fill="#1a1a2e"/></g><g transform="rotate(190.0 512.0 512.0)"><rect opacity="0.35" x="510.5" y="46.0" width="3" height="14" rx="1.5" ry="1.5" fill="#1a1a2e"/></g><g transform="rotate(191.66666666666666 512.0 512.0)"><rect opacity="0.2" x="511.0" y="46.0" width="2" height="9" rx="1" ry="1" fill="#1a1a2e"/></g><g transform="rotate(193.33333333333334 512.0 512.0)"><rect opacity="0.2" x="511.0" y="46.0" width="2" height="9" rx="1" ry="1" fill="#1a1a2e"/></g><g transform="rotate(195.0 512.0 512.0)"><rect opacity="0.35" x="510.5" y="46.0" width="3" height="14" rx="1.5" ry="1.5" fill="#1a1a2e"/></g><g transform="rotate(196.66666666666666 512.0 512.0)"><rect opacity="0.2" x="511.0" y="46.0" width="2" height="9" rx="1" ry="1" fill="#1a1a2e"/></g><g transform="rotate(198.33333333333334 512.0 512.0)"><rect opacity="0.2" x="511.0" y="46.0" width="2" height="9" rx="1" ry="1" fill="#1a1a2e"/></g><g transform="rotate(200.0 512.0 512.0)"><rect opacity="0.35" x="510.5" y="46.0" width="3" height="14" rx="1.5" ry="1.5" fill="#1a1a2e"/></g><g transform="rotate(201.66666666666666 512.0 512.0)"><rect opacity="0.2" x="511.0" y="46.0" width="2" height="9" rx="1" ry="1" fill="#1a1a2e"/></g><g transform="rotate(203.33333333333334 512.0 512.0)"><rect opacity="0.2" x="511.0" y="46.0" width="2" height="9" rx="1" ry="1" fill="#1a1a2e"/></g><g transform="rotate(205.0 512.0 512.0)"><rect opacity="0.35" x="510.5" y="46.0" width="3" height="14" rx="1.5" ry="1.5" fill="#1a1a2e"/></g><g transform="rotate(206.66666666666666 512.0 512.0)"><rect opacity="0.2" x="511.0" y="46.0" width="2" height="9" rx="1" ry="1" fill="#1a1a2e"/></g><g transform="rotate(208.33333333333334 512.0 512.0)"><rect opacity="0.2" x="511.0" y="46.0" width="2" height="9" rx="1" ry="1" fill="#1a1a2e"/></g><g transform="rotate(210.0 512.0 512.0)"><rect opacity="1.0" x="508.5" y="46.0" width="7" height="28" rx="3.5" ry="3.5" fill="#1a1a2e"/></g><g transform="rotate(211.66666666666666 512.0 512.0)"><rect opacity="0.2" x="511.0" y="46.0" width="2" height="9" rx="1" ry="1" fill="#1a1a2e"/></g><g transform="rotate(213.33333333333334 512.0 512.0)"><rect opacity="0.2" x="511.0" y="46.0" width="2" height="9" rx="1" ry="1" fill="#1a1a2e"/></g><g transform="rotate(215.0 512.0 512.0)"><rect opacity="0.35" x="510.5" y="46.0" width="3" height="14" rx="1.5" ry="1.5" fill="#1a1a2e"/></g><g transform="rotate(216.66666666666666 512.0 512.0)"><rect opacity="0.2" x="511.0" y="46.0" width="2" height="9" rx="1" ry="1" fill="#1a1a2e"/></g><g transform="rotate(218.33333333333334 512.0 512.0)"><rect opacity="0.2" x="511.0" y="46.0" width="2" height="9" rx="1" ry="1" fill="#1a1a2e"/></g><g transform="rotate(220.0 512.0 512.0)"><rect opacity="0.35" x="510.5" y="46.0" width="3" height="14" rx="1.5" ry="1.5" fill="#1a1a2e"/></g><g transform="rotate(221.66666666666666 512.0 512.0)"><rect opacity="0.2" x="511.0" y="46.0" width="2" height="9" rx="1" ry="1" fill="#1a1a2e"/></g><g transform="rotate(223.33333333333334 512.0 512.0)"><rect opacity="0.2" x="511.0" y="46.0" width="2" height="9" rx="1" ry="1" fill="#1a1a2e"/></g><g transform="rotate(225.0 512.0 512.0)"><rect opacity="0.35" x="510.5" y="46.0" width="3" height="14" rx="1.5" ry="1.5" fill="#1a1a2e"/></g><g transform="rotate(226.66666666666666 512.0 512.0)"><rect opacity="0.2" x="511.0" y="46.0" width="2" height="9" rx="1" ry="1" fill="#1a1a2e"/></g><g transform="rotate(228.33333333333334 512.0 512.0)"><rect opacity="0.2" x="511.0" y="46.0" width="2" height="9" rx="1" ry="1" fill="#1a1a2e"/></g><g transform="rotate(230.0 512.0 512.0)"><rect opacity="0.35" x="510.5" y="46.0" width="3" height="14" rx="1.5" ry="1.5" fill="#1a1a2e"/></g><g transform="rotate(231.66666666666666 512.0 512.0)"><rect opacity="0.2" x="511.0" y="46.0" width="2" height="9" rx="1" ry="1" fill="#1a1a2e"/></g><g transform="rotate(233.33333333333334 512.0 512.0)"><rect opacity="0.2" x="511.0" y="46.0" width="2" height="9" rx="1" ry="1" fill="#1a1a2e"/></g><g transform="rotate(235.0 512.0 512.0)"><rect opacity="0.35" x="510.5" y="46.0" width="3" height="14" rx="1.5" ry="1.5" fill="#1a1a2e"/></g><g transform="rotate(236.66666666666666 512.0 512.0)"><rect opacity="0.2" x="511.0" y="46.0" width="2" height="9" rx="1" ry="1" fill="#1a1a2e"/></g><g transform="rotate(238.33333333333334 512.0 512.0)"><rect opacity="0.2" x="511.0" y="46.0" width="2" height="9" rx="1" ry="1" fill="#1a1a2e"/></g><g transform="rotate(240.0 512.0 512.0)"><rect opacity="1.0" x="508.5" y="46.0" width="7" height="28" rx="3.5" ry="3.5" fill="#1a1a2e"/></g><g transform="rotate(241.66666666666666 512.0 512.0)"><rect opacity="0.2" x="511.0" y="46.0" width="2" height="9" rx="1" ry="1" fill="#1a1a2e"/></g><g transform="rotate(243.33333333333334 512.0 512.0)"><rect opacity="0.2" x="511.0" y="46.0" width="2" height="9" rx="1" ry="1" fill="#1a1a2e"/></g><g transform="rotate(245.0 512.0 512.0)"><rect opacity="0.35" x="510.5" y="46.0" width="3" height="14" rx="1.5" ry="1.5" fill="#1a1a2e"/></g><g transform="rotate(246.66666666666666 512.0 512.0)"><rect opacity="0.2" x="511.0" y="46.0" width="2" height="9" rx="1" ry="1" fill="#1a1a2e"/></g><g transform="rotate(248.33333333333334 512.0 512.0)"><rect opacity="0.2" x="511.0" y="46.0" width="2" height="9" rx="1" ry="1" fill="#1a1a2e"/></g><g transform="rotate(250.0 512.0 512.0)"><rect opacity="0.35" x="510.5" y="46.0" width="3" height="14" rx="1.5" ry="1.5" fill="#1a1a2e"/></g><g transform="rotate(251.66666666666666 512.0 512.0)"><rect opacity="0.2" x="511.0" y="46.0" width="2" height="9" rx="1" ry="1" fill="#1a1a2e"/></g><g transform="rotate(253.33333333333334 512.0 512.0)"><rect opacity="0.2" x="511.0" y="46.0" width="2" height="9" rx="1" ry="1" fill="#1a1a2e"/></g><g transform="rotate(255.0 512.0 512.0)"><rect opacity="0.35" x="510.5" y="46.0" width="3" height="14" rx="1.5" ry="1.5" fill="#1a1a2e"/></g><g transform="rotate(256.6666666666667 512.0 512.0)"><rect opacity="0.2" x="511.0" y="46.0" width="2" height="9" rx="1" ry="1" fill="#1a1a2e"/></g><g transform="rotate(258.3333333333333 512.0 512.0)"><rect opacity="0.2" x="511.0" y="46.0" width="2" height="9" rx="1" ry="1" fill="#1a1a2e"/></g><g transform="rotate(260.0 512.0 512.0)"><rect opacity="0.35" x="510.5" y="46.0" width="3" height="14" rx="1.5" ry="1.5" fill="#1a1a2e"/></g><g transform="rotate(261.6666666666667 512.0 512.0)"><rect opacity="0.2" x="511.0" y="46.0" width="2" height="9" rx="1" ry="1" fill="#1a1a2e"/></g><g transform="rotate(263.3333333333333 512.0 512.0)"><rect opacity="0.2" x="511.0" y="46.0" width="2" height="9" rx="1" ry="1" fill="#1a1a2e"/></g><g transform="rotate(265.0 512.0 512.0)"><rect opacity="0.35" x="510.5" y="46.0" width="3" height="14" rx="1.5" ry="1.5" fill="#1a1a2e"/></g><g transform="rotate(266.6666666666667 512.0 512.0)"><rect opacity="0.2" x="511.0" y="46.0" width="2" height="9" rx="1" ry="1" fill="#1a1a2e"/></g><g transform="rotate(268.3333333333333 512.0 512.0)"><rect opacity="0.2" x="511.0" y="46.0" width="2" height="9" rx="1" ry="1" fill="#1a1a2e"/></g><g transform="rotate(270.0 512.0 512.0)"><rect opacity="1.0" x="507.0" y="46.0" width="10" height="40" rx="5" ry="5" fill="#1a1a2e"/></g><g transform="rotate(271.6666666666667 512.0 512.0)"><rect opacity="0.2" x="511.0" y="46.0" width="2" height="9" rx="1" ry="1" fill="#1a1a2e"/></g><g transform="rotate(273.3333333333333 512.0 512.0)"><rect opacity="0.2" x="511.0" y="46.0" width="2" height="9" rx="1" ry="1" fill="#1a1a2e"/></g><g transform="rotate(275.0 512.0 512.0)"><rect opacity="0.35" x="510.5" y="46.0" width="3" height="14" rx="1.5" ry="1.5" fill="#1a1a2e"/></g><g transform="rotate(276.6666666666667 512.0 512.0)"><rect opacity="0.2" x="511.0" y="46.0" width="2" height="9" rx="1" ry="1" fill="#1a1a2e"/></g><g transform="rotate(278.3333333333333 512.0 512.0)"><rect opacity="0.2" x="511.0" y="46.0" width="2" height="9" rx="1" ry="1" fill="#1a1a2e"/></g><g transform="rotate(280.0 512.0 512.0)"><rect opacity="0.35" x="510.5" y="46.0" width="3" height="14" rx="1.5" ry="1.5" fill="#1a1a2e"/></g><g transform="rotate(281.6666666666667 512.0 512.0)"><rect opacity="0.2" x="511.0" y="46.0" width="2" height="9" rx="1" ry="1" fill="#1a1a2e"/></g><g transform="rotate(283.3333333333333 512.0 512.0)"><rect opacity="0.2" x="511.0" y="46.0" width="2" height="9" rx="1" ry="1" fill="#1a1a2e"/></g><g transform="rotate(285.0 512.0 512.0)"><rect opacity="0.35" x="510.5" y="46.0" width="3" height="14" rx="1.5" ry="1.5" fill="#1a1a2e"/></g><g transform="rotate(286.6666666666667 512.0 512.0)"><rect opacity="0.2" x="511.0" y="46.0" width="2" height="9" rx="1" ry="1" fill="#1a1a2e"/></g><g transform="rotate(288.3333333333333 512.0 512.0)"><rect opacity="0.2" x="511.0" y="46.0" width="2" height="9" rx="1" ry="1" fill="#1a1a2e"/></g><g transform="rotate(290.0 512.0 512.0)"><rect opacity="0.35" x="510.5" y="46.0" width="3" height="14" rx="1.5" ry="1.5" fill="#1a1a2e"/></g><g transform="rotate(291.6666666666667 512.0 512.0)"><rect opacity="0.2" x="511.0" y="46.0" width="2" height="9" rx="1" ry="1" fill="#1a1a2e"/></g><g transform="rotate(293.3333333333333 512.0 512.0)"><rect opacity="0.2" x="511.0" y="46.0" width="2" height="9" rx="1" ry="1" fill="#1a1a2e"/></g><g transform="rotate(295.0 512.0 512.0)"><rect opacity="0.35" x="510.5" y="46.0" width="3" height="14" rx="1.5" ry="1.5" fill="#1a1a2e"/></g><g transform="rotate(296.6666666666667 512.0 512.0)"><rect opacity="0.2" x="511.0" y="46.0" width="2" height="9" rx="1" ry="1" fill="#1a1a2e"/></g><g transform="rotate(298.3333333333333 512.0 512.0)"><rect opacity="0.2" x="511.0" y="46.0" width="2" height="9" rx="1" ry="1" fill="#1a1a2e"/></g><g transform="rotate(300.0 512.0 512.0)"><rect opacity="1.0" x="508.5" y="46.0" width="7" height="28" rx="3.5" ry="3.5" fill="#1a1a2e"/></g><g transform="rotate(301.6666666666667 512.0 512.0)"><rect opacity="0.2" x="511.0" y="46.0" width="2" height="9" rx="1" ry="1" fill="#1a1a2e"/></g><g transform="rotate(303.3333333333333 512.0 512.0)"><rect opacity="0.2" x="511.0" y="46.0" width="2" height="9" rx="1" ry="1" fill="#1a1a2e"/></g><g transform="rotate(305.0 512.0 512.0)"><rect opacity="0.35" x="510.5" y="46.0" width="3" height="14" rx="1.5" ry="1.5" fill="#1a1a2e"/></g><g transform="rotate(306.6666666666667 512.0 512.0)"><rect opacity="0.2" x="511.0" y="46.0" width="2" height="9" rx="1" ry="1" fill="#1a1a2e"/></g><g transform="rotate(308.3333333333333 512.0 512.0)"><rect opacity="0.2" x="511.0" y="46.0" width="2" height="9" rx="1" ry="1" fill="#1a1a2e"/></g><g transform="rotate(310.0 512.0 512.0)"><rect opacity="0.35" x="510.5" y="46.0" width="3" height="14" rx="1.5" ry="1.5" fill="#1a1a2e"/></g><g transform="rotate(311.6666666666667 512.0 512.0)"><rect opacity="0.2" x="511.0" y="46.0" width="2" height="9" rx="1" ry="1" fill="#1a1a2e"/></g><g transform="rotate(313.3333333333333 512.0 512.0)"><rect opacity="0.2" x="511.0" y="46.0" width="2" height="9" rx="1" ry="1" fill="#1a1a2e"/></g><g transform="rotate(315.0 512.0 512.0)"><rect opacity="0.35" x="510.5" y="46.0" width="3" height="14" rx="1.5" ry="1.5" fill="#1a1a2e"/></g><g transform="rotate(316.6666666666667 512.0 512.0)"><rect opacity="0.2" x="511.0" y="46.0" width="2" height="9" rx="1" ry="1" fill="#1a1a2e"/></g><g transform="rotate(318.3333333333333 512.0 512.0)"><rect opacity="0.2" x="511.0" y="46.0" width="2" height="9" rx="1" ry="1" fill="#1a1a2e"/></g><g transform="rotate(320.0 512.0 512.0)"><rect opacity="0.35" x="510.5" y="46.0" width="3" height="14" rx="1.5" ry="1.5" fill="#1a1a2e"/></g><g transform="rotate(321.6666666666667 512.0 512.0)"><rect opacity="0.2" x="511.0" y="46.0" width="2" height="9" rx="1" ry="1" fill="#1a1a2e"/></g><g transform="rotate(323.3333333333333 512.0 512.0)"><rect opacity="0.2" x="511.0" y="46.0" width="2" height="9" rx="1" ry="1" fill="#1a1a2e"/></g><g transform="rotate(325.0 512.0 512.0)"><rect opacity="0.35" x="510.5" y="46.0" width="3" height="14" rx="1.5" ry="1.5" fill="#1a1a2e"/></g><g transform="rotate(326.6666666666667 512.0 512.0)"><rect opacity="0.2" x="511.0" y="46.0" width="2" height="9" rx="1" ry="1" fill="#1a1a2e"/></g><g transform="rotate(328.3333333333333 512.0 512.0)"><rect opacity="0.2" x="511.0" y="46.0" width="2" height="9" rx="1" ry="1" fill="#1a1a2e"/></g><g transform="rotate(330.0 512.0 512.0)"><rect opacity="1.0" x="508.5" y="46.0" width="7" height="28" rx="3.5" ry="3.5" fill="#1a1a2e"/></g><g transform="rotate(331.6666666666667 512.0 512.0)"><rect opacity="0.2" x="511.0" y="46.0" width="2" height="9" rx="1" ry="1" fill="#1a1a2e"/></g><g transform="rotate(333.3333333333333 512.0 512.0)"><rect opacity="0.2" x="511.0" y="46.0" width="2" height="9" rx="1" ry="1" fill="#1a1a2e"/></g><g transform="rotate(335.0 512.0 512.0)"><rect opacity="0.35" x="510.5" y="46.0" width="3" height="14" rx="1.5" ry="1.5" fill="#1a1a2e"/></g><g transform="rotate(336.6666666666667 512.0 512.0)"><rect opacity="0.2" x="511.0" y="46.0" width="2" height="9" rx="1" ry="1" fill="#1a1a2e"/></g><g transform="rotate(338.3333333333333 512.0 512.0)"><rect opacity="0.2" x="511.0" y="46.0" width="2" height="9" rx="1" ry="1" fill="#1a1a2e"/></g><g transform="rotate(340.0 512.0 512.0)"><rect opacity="0.35" x="510.5" y="46.0" width="3" height="14" rx="1.5" ry="1.5" fill="#1a1a2e"/></g><g transform="rotate(341.6666666666667 512.0 512.0)"><rect opacity="0.2" x="511.0" y="46.0" width="2" height="9" rx="1" ry="1" fill="#1a1a2e"/></g><g transform="rotate(343.3333333333333 512.0 512.0)"><rect opacity="0.2" x="511.0" y="46.0" width="2" height="9" rx="1" ry="1" fill="#1a1a2e"/></g><g transform="rotate(345.0 512.0 512.0)"><rect opacity="0.35" x="510.5" y="46.0" width="3" height="14" rx="1.5" ry="1.5" fill="#1a1a2e"/></g><g transform="rotate(346.6666666666667 512.0 512.0)"><rect opacity="0.2" x="511.0" y="46.0" width="2" height="9" rx="1" ry="1" fill="#1a1a2e"/></g><g transform="rotate(348.3333333333333 512.0 512.0)"><rect opacity="0.2" x="511.0" y="46.0" width="2" height="9" rx="1" ry="1" fill="#1a1a2e"/></g><g transform="rotate(350.0 512.0 512.0)"><rect opacity="0.35" x="510.5" y="46.0" width="3" height="14" rx="1.5" ry="1.5" fill="#1a1a2e"/></g><g transform="rotate(351.6666666666667 512.0 512.0)"><rect opacity="0.2" x="511.0" y="46.0" width="2" height="9" rx="1" ry="1" fill="#1a1a2e"/></g><g transform="rotate(353.3333333333333 512.0 512.0)"><rect opacity="0.2" x="511.0" y="46.0" width="2" height="9" rx="1" ry="1" fill="#1a1a2e"/></g><g transform="rotate(355.0 512.0 512.0)"><rect opacity="0.35" x="510.5" y="46.0" width="3" height="14" rx="1.5" ry="1.5" fill="#1a1a2e"/></g><g transform="rotate(356.6666666666667 512.0 512.0)"><rect opacity="0.2" x="511.0" y="46.0" width="2" height="9" rx="1" ry="1" fill="#1a1a2e"/></g><g transform="rotate(358.3333333333333 512.0 512.0)"><rect opacity="0.2" x="511.0" y="46.0" width="2" height="9" rx="1" ry="1" fill="#1a1a2e"/></g><g transform="rotate(0 512.0 512.0)"><rect transform="rotate(45 512.0 28.0)" x="499.0" y="15.0" width="26" height="26" rx="5" ry="5" fill="#1a1a2e"/></g><g transform="rotate(90 512.0 512.0)"><rect transform="rotate(45 512.0 28.0)" x="499.0" y="15.0" width="26" height="26" rx="5" ry="5" fill="#1a1a2e"/></g><g transform="rotate(180 512.0 512.0)"><rect transform="rotate(45 512.0 28.0)" x="499.0" y="15.0" width="26" height="26" rx="5" ry="5" fill="#1a1a2e"/></g><g transform="rotate(270 512.0 512.0)"><rect transform="rotate(45 512.0 28.0)" x="499.0" y="15.0" width="26" height="26" rx="5" ry="5" fill="#1a1a2e"/></g></svg>